# xmcd CD database file
#
# Track frame offsets:
#	150
#	20297
#	40521
#	64103
#	85299
#	110367
#	136014
#	168013
#	187151
#	223216
#	255370
#	277042
#
# Disc length: 3940 seconds
#
# Revision: 0
# Processed by: cddbd v1.5.1PL2 Copyright (c) Steve Scherf et al.
# Submitted via: CDex 1.50Beta7
#
DISCID=9f0f620c
DTITLE=Mcghee/Bailey/Edwards - Home Run
DYEAR=1999
DGENRE=Jazz
TTITLE0=Get It On
TTITLE1=Nostalgia
TTITLE2=Blues For Helene
TTITLE3=Jonas
TTITLE4=Brownie Speaks
TTITLE5=You Never Know
TTITLE6=Funky Senor
TTITLE7=Alone Together
TTITLE8=I Remember Clifford
TTITLE9=Moose The Mooche
TTITLE10=On A Misty Night
TTITLE11=In Walked Bud
EXTD=YEAR: 1999
EXTT0=
EXTT1=
EXTT2=
EXTT3=
EXTT4=
EXTT5=
EXTT6=
EXTT7=
EXTT8=
EXTT9=
EXTT10=
EXTT11=
PLAYORDER=
